<svg width="799.9999999999999" height="778" xmlns="http://www.w3.org/2000/svg">
 <g>
  <title>Layer 1</title>
  <rect stroke="#000000" id="svg_110" height="76.0031" width="31.00126" y="118.51706" x="223.35878" stroke-width="0" fill="#ffaaff"/>
  <rect stroke="#000000" id="svg_109" height="76.0031" width="31.00126" y="118.51706" x="194.35759" stroke-width="0" fill="#ffaaff"/>
  <rect stroke="#000000" id="svg_105" height="76.0031" width="31.00126" y="118.51706" x="162.35629" stroke-width="0" fill="#ffaaff"/>
  <rect stroke="#000000" id="svg_104" height="76.0031" width="31.00126" y="118.51706" x="127.35486" stroke-width="0" fill="#ffaaff"/>
  <rect stroke="#000000" id="svg_103" height="76.0031" width="31.00126" y="118.51706" x="93.35347" stroke-width="0" fill="#ffaaff"/>
  <rect stroke="#000000" id="svg_87" height="76.0031" width="31.00126" y="118.51706" x="61.35216" stroke-width="0" fill="#ffaaff"/>
  <rect stroke="#000000" id="svg_67" height="76.0031" width="31.00126" y="118.51706" x="30.3509" stroke-width="0" fill="#ffaaff"/>
  <rect stroke="#000000" id="svg_66" height="76.0031" width="27.0011" y="118.51706" x="252.35996" stroke-width="0" fill="#ffaaff"/>
  <rect stroke="#000000" id="svg_62" height="76.0031" width="32.0013" y="215.02097" x="28.35082" stroke-width="0" fill="#ffaaff"/>
  <rect stroke="#000000" id="svg_65" height="76.0031" width="32.0013" y="309.02482" x="149.35574" stroke-width="0" fill="#56ffff"/>
  <rect stroke="#000000" id="svg_64" height="76.0031" width="29.00119" y="309.02482" x="27.35078" stroke-width="0" fill="#56ffff"/>
  <rect stroke="#000000" id="svg_59" height="76.0031" width="27.00109" y="528.03375" x="28.35082" stroke-width="0" fill="#ffaaff"/>
  <rect stroke="#000000" id="svg_61" height="76.0031" width="32.00131" y="215.02097" x="153.35591" stroke-width="0" fill="#ffaaff"/>
  <rect stroke="#000000" id="svg_60" height="76.0031" width="33.00134" y="215.021" x="90.35335" stroke-width="0" fill="#ffaaff"/>
  <rect stroke="#000000" id="svg_55" height="76.0031" width="36.00146" y="215.02097" x="213.35838" stroke-width="0" fill="#ffaaff"/>
  <rect stroke="#000000" id="svg_58" height="76.0031" width="34.00139" y="422.52944" x="110.35416" stroke-width="0" fill="#ffaaff"/>
  <rect stroke="#000000" id="svg_57" height="76.0031" width="31.00126" y="422.52944" x="28.35081" stroke-width="0" fill="#ffaaff"/>
  <rect stroke="#000000" id="svg_56" height="76.0031" width="36.00148" y="422.52945" x="187.3573" stroke-width="0" fill="#ffaaff"/>
  <g id="svg_86">
   <g id="svg_41">
    <g id="svg_27">
     <ellipse transform="rotate(-19 203.917 165.163)" fill="#000000" cx="203.9166" cy="165.1627" id="svg_24" rx="7.08309" ry="4.67541" stroke="#000000"/>
     <line fill="none" x1="193.63175" y1="164.95108" x2="214.37972" y2="164.95108" id="svg_25" stroke-width="1.5" stroke="#000000"/>
     <line fill="none" x1="210.38011" y1="164.49281" x2="210.38011" y2="130.12116" id="svg_26" stroke="#000000"/>
    </g>
    <g id="svg_31">
     <ellipse transform="rotate(-19 235.414 165.163)" fill="#000000" cx="235.41353" cy="165.1627" id="svg_28" rx="7.08309" ry="4.67541" stroke="#000000"/>
     <line fill="none" x1="225.12867" y1="164.95107" x2="245.87665" y2="164.95107" id="svg_29" stroke-width="1.5" stroke="#000000"/>
     <line fill="none" x1="241.87704" y1="164.4928" x2="241.87704" y2="130.12116" id="svg_30" stroke="#000000"/>
    </g>
    <g id="svg_35">
     <ellipse transform="rotate(-19 266.285 165.163)" fill="#000000" cx="266.28551" cy="165.1627" id="svg_32" rx="7.08309" ry="4.67541" stroke="#000000"/>
     <line fill="none" x1="256.00066" y1="164.95107" x2="276.74864" y2="164.95107" id="svg_33" stroke-width="1.5" stroke="#000000"/>
     <line fill="none" x1="272.74903" y1="164.4928" x2="272.74903" y2="130.12116" id="svg_34" stroke="#000000"/>
    </g>
    <g id="svg_39">
     <ellipse transform="rotate(-19 172.795 165.163)" fill="#000000" cx="172.79464" cy="165.16274" id="svg_36" rx="7.08309" ry="4.67541" stroke="#000000"/>
     <line fill="none" x1="162.50978" y1="164.95112" x2="183.25776" y2="164.95112" id="svg_37" stroke-width="1.5" stroke="#000000"/>
     <line fill="none" x1="179.25815" y1="164.49285" x2="179.25815" y2="130.1212" id="svg_38" stroke="#000000"/>
    </g>
    <line fill="none" stroke="#000000" stroke-width="4.5" x1="179.00817" y1="132.05847" x2="272.49905" y2="132.43343" id="svg_40"/>
   </g>
   <g id="svg_85">
    <g id="svg_71">
     <ellipse transform="rotate(-19 78.9169 165.163)" fill="#000000" cx="78.91647" cy="165.16271" id="svg_68" rx="7.08309" ry="4.67541" stroke="#000000"/>
     <line fill="none" x1="68.63161" y1="164.95108" x2="89.37959" y2="164.95108" id="svg_69" stroke-width="1.5" stroke="#000000"/>
     <line fill="none" x1="85.37998" y1="164.49281" x2="85.37998" y2="130.12117" id="svg_70" stroke="#000000"/>
    </g>
    <g id="svg_75">
     <ellipse transform="rotate(-19 110.414 165.163)" fill="#000000" cx="110.41339" cy="165.1627" id="svg_72" rx="7.08309" ry="4.67541" stroke="#000000"/>
     <line fill="none" x1="100.12854" y1="164.95108" x2="120.87651" y2="164.95108" id="svg_73" stroke-width="1.5" stroke="#000000"/>
     <line fill="none" x1="116.8769" y1="164.49281" x2="116.8769" y2="130.12116" id="svg_74" stroke="#000000"/>
    </g>
    <g id="svg_79">
     <ellipse transform="rotate(-19 141.285 165.163)" fill="#000000" cx="141.28538" cy="165.1627" id="svg_76" rx="7.08309" ry="4.67541" stroke="#000000"/>
     <line fill="none" x1="131.00053" y1="164.95108" x2="151.7485" y2="164.95108" id="svg_77" stroke-width="1.5" stroke="#000000"/>
     <line fill="none" x1="147.74889" y1="164.49281" x2="147.74889" y2="130.12116" id="svg_78" stroke="#000000"/>
    </g>
    <g id="svg_83">
     <ellipse transform="rotate(-19 47.7949 165.163)" fill="#000000" cx="47.7945" cy="165.16275" id="svg_80" rx="7.08309" ry="4.67541" stroke="#000000"/>
     <line fill="none" x1="37.50965" y1="164.95112" x2="58.25762" y2="164.95112" id="svg_81" stroke-width="1.5" stroke="#000000"/>
     <line fill="none" x1="54.25801" y1="164.49285" x2="54.25801" y2="130.12121" id="svg_82" stroke="#000000"/>
    </g>
    <line fill="none" stroke="#000000" stroke-width="4.5" x1="54.00804" y1="132.05848" x2="147.49892" y2="132.43344" id="svg_84"/>
   </g>
  </g>
  <g id="svg_102">
   <g id="svg_94">
    <ellipse transform="rotate(-19 232.418 259.992)" fill="#000000" cx="232.41828" cy="259.99167" id="svg_88" rx="7.08309" ry="4.67541" stroke="#000000"/>
    <line fill="none" x1="222.13343" y1="259.78005" x2="242.8814" y2="259.78005" id="svg_89" stroke-width="1.5" stroke="#000000"/>
    <line fill="none" x1="238.88179" y1="259.32178" x2="238.88179" y2="224.95013" id="svg_90" stroke="#000000"/>
    <ellipse transform="rotate(-19 169.799 259.992)" fill="#000000" cx="169.79939" cy="259.99172" id="svg_91" rx="7.08309" ry="4.67541" stroke="#000000"/>
    <line fill="none" x1="159.51454" y1="259.78009" x2="180.26251" y2="259.78009" id="svg_92" stroke-width="1.5" stroke="#000000"/>
    <line fill="none" x1="176.2629" y1="259.32183" x2="176.2629" y2="224.95018" id="svg_93" stroke="#000000"/>
   </g>
   <g id="svg_101">
    <ellipse transform="rotate(-19 107.418 259.992)" fill="#000000" cx="107.41815" cy="259.9917" id="svg_95" rx="7.08309" ry="4.67541" stroke="#000000"/>
    <line fill="none" x1="97.13329" y1="259.78007" x2="117.88127" y2="259.78007" id="svg_96" stroke-width="1.5" stroke="#000000"/>
    <line fill="none" x1="113.88166" y1="259.32181" x2="113.88166" y2="224.95016" id="svg_97" stroke="#000000"/>
    <ellipse transform="rotate(-19 44.7991 259.992)" fill="#000000" cx="44.79926" cy="259.99174" id="svg_98" rx="7.08309" ry="4.67541" stroke="#000000"/>
    <line fill="none" x1="34.5144" y1="259.78012" x2="55.26238" y2="259.78012" id="svg_99" stroke-width="1.5" stroke="#000000"/>
    <line fill="none" x1="51.26277" y1="259.32185" x2="51.26277" y2="224.95021" id="svg_100" stroke="#000000"/>
   </g>
  </g>
  <g id="svg_12">
   <ellipse transform="rotate(-14 41.7993 572.492)" fill="#ffffff" cx="41.79928" cy="572.49096" id="svg_106" rx="7.08309" ry="4.67541" stroke="#000000" stroke-width="1.5"/>
   <ellipse transform="rotate(-15 42.0491 572.595)" fill="#ffffff" cx="42.04911" cy="572.5939" id="svg_107" rx="6.41736" ry="3.69765" stroke-width="1.5" stroke="#000000"/>
   <line fill="none" x1="31.51443" y1="572.27933" x2="52.2624" y2="572.27933" id="svg_108" stroke-width="1.5" stroke="#000000"/>
  </g>
  <g id="svg_23">
   <g id="svg_17">
    <line fill="none" x1="171.27772" y1="354.81866" x2="171.27772" y2="320.44702" id="svg_13" stroke="#000000"/>
    <ellipse transform="rotate(-14 164.814 355.488)" fill="#ffffff" cx="164.81421" cy="355.48856" id="svg_14" rx="7.08309" ry="4.67541" stroke="#000000" stroke-width="1.5"/>
    <ellipse transform="rotate(-15 165.064 355.591)" fill="#ffffff" cx="165.06404" cy="355.5915" id="svg_15" rx="6.41736" ry="3.69765" stroke-width="1.5" stroke="#000000"/>
    <line fill="none" x1="154.52936" y1="355.27693" x2="175.27733" y2="355.27693" id="svg_16" stroke-width="1.5" stroke="#000000"/>
   </g>
   <g id="svg_22">
    <line fill="none" x1="49.26271" y1="354.81862" x2="49.26271" y2="320.44697" id="svg_18" stroke="#000000"/>
    <ellipse transform="rotate(-14 42.7992 355.489)" fill="#ffffff" cx="42.7992" cy="355.48851" id="svg_19" rx="7.08309" ry="4.67541" stroke="#000000" stroke-width="1.5"/>
    <ellipse transform="rotate(-15 43.049 355.592)" fill="#ffffff" cx="43.04903" cy="355.59145" id="svg_20" rx="6.41736" ry="3.69765" stroke-width="1.5" stroke="#000000"/>
    <line fill="none" x1="32.51435" y1="355.27688" x2="53.26232" y2="355.27688" id="svg_21" stroke-width="1.5" stroke="#000000"/>
   </g>
  </g>
  <g id="svg_54">
   <g id="svg_5">
    <line fill="none" x1="212.2778" y1="468.31945" x2="212.2778" y2="433.94781" id="svg_1" stroke="#000000"/>
    <ellipse transform="rotate(-14 205.814 468.989)" fill="#ffffff" cx="205.81429" cy="468.98935" id="svg_2" rx="7.08309" ry="4.67541" stroke="#000000" stroke-width="1.5"/>
    <ellipse transform="rotate(-15 206.064 469.092)" fill="#ffffff" cx="206.06412" cy="469.09229" id="svg_3" rx="6.41736" ry="3.69765" stroke-width="1.5" stroke="#000000"/>
    <line fill="none" x1="195.52944" y1="468.77772" x2="216.27741" y2="468.77772" id="svg_4" stroke-width="1.5" stroke="#000000"/>
   </g>
   <g id="svg_10">
    <line fill="none" x1="51.26279" y1="468.31944" x2="51.26279" y2="433.94779" id="svg_6" stroke="#000000"/>
    <ellipse transform="rotate(-14 44.7993 468.99)" fill="#ffffff" cx="44.79928" cy="468.98933" id="svg_7" rx="7.08309" ry="4.67541" stroke="#000000" stroke-width="1.5"/>
    <ellipse transform="rotate(-15 45.0491 469.093)" fill="#ffffff" cx="45.04911" cy="469.09227" id="svg_8" rx="6.41736" ry="3.69765" stroke-width="1.5" stroke="#000000"/>
    <line fill="none" x1="34.51443" y1="468.7777" x2="55.2624" y2="468.7777" id="svg_9" stroke-width="1.5" stroke="#000000"/>
   </g>
   <g id="svg_46">
    <line fill="none" x1="135.2778" y1="468.31945" x2="135.2778" y2="433.94781" id="svg_42" stroke="#000000"/>
    <ellipse transform="rotate(-14 128.814 468.989)" fill="#ffffff" cx="128.81429" cy="468.98935" id="svg_43" rx="7.08309" ry="4.67541" stroke="#000000" stroke-width="1.5"/>
    <ellipse transform="rotate(-15 129.064 469.092)" fill="#ffffff" cx="129.06412" cy="469.09229" id="svg_44" rx="6.41736" ry="3.69765" stroke-width="1.5" stroke="#000000"/>
    <line fill="none" x1="118.52944" y1="468.77772" x2="139.27741" y2="468.77772" id="svg_45" stroke-width="1.5" stroke="#000000"/>
   </g>
   <line stroke="#000000" id="svg_47" y2="420" x2="214.99922" y1="420" x1="140.37419" fill="none"/>
   <line id="svg_48" y2="419.70762" x2="214.74866" y1="425.20762" x1="214.74866" stroke="#000000" fill="none"/>
   <line id="svg_49" y2="419.58262" x2="48.49883" y1="425.08262" x1="48.49883" stroke="#000000" fill="none"/>
   <line stroke="#000000" id="svg_52" y2="420" x2="126.99931" y1="420" x1="47.99928" fill="none"/>
   <text font-weight="bold" font-style="italic" xml:space="preserve" text-anchor="start" font-family="Noto Sans JP" font-size="17" stroke-width="0" id="svg_53" y="424.58328" x="129.70754" stroke="#000000" fill="#000000">3</text>
  </g>
  <text font-weight="bold" xml:space="preserve" text-anchor="start" font-family="Noto Sans JP" font-size="17" id="svg_111" y="599.707" x="36.35114" stroke-width="0" stroke="#000000" fill="#000000">1</text>
  <text style="cursor: move;" font-weight="bold" xml:space="preserve" text-anchor="start" font-family="Noto Sans JP" font-size="17" id="svg_112" y="189.69027" x="230.35905" stroke-width="0" stroke="#000000" fill="#000000">4</text>
  <text font-weight="bold" xml:space="preserve" text-anchor="start" font-family="Noto Sans JP" font-size="17" id="svg_113" y="285.69419" x="40.35131" stroke-width="0" stroke="#000000" fill="#000000">1</text>
  <text font-weight="bold" xml:space="preserve" text-anchor="start" font-family="Noto Sans JP" font-size="17" id="svg_114" y="379.69803" x="39.35127" stroke-width="0" stroke="#000000" fill="#000000">1</text>
  <text font-weight="bold" xml:space="preserve" text-anchor="start" font-family="Noto Sans JP" font-size="17" id="svg_115" y="494.70272" x="41.35135" stroke-width="0" stroke="#000000" fill="#000000">1</text>
  <text font-weight="bold" xml:space="preserve" text-anchor="start" font-family="Noto Sans JP" font-size="17" id="svg_116" y="191.69036" x="261.36032" stroke-width="0" stroke="#000000" fill="#000000">+</text>
  <text font-weight="bold" xml:space="preserve" text-anchor="start" font-family="Noto Sans JP" font-size="17" id="svg_117" y="189.69027" x="106.354" stroke-width="0" stroke="#000000" fill="#000000">2</text>
  <text font-weight="bold" xml:space="preserve" text-anchor="start" font-family="Noto Sans JP" font-size="17" id="svg_118" y="189.69027" x="170.35661" stroke-width="0" stroke="#000000" fill="#000000">3</text>
  <text style="cursor: move;" font-weight="bold" xml:space="preserve" text-anchor="start" font-family="Noto Sans JP" font-size="17" id="svg_119" y="286.69423" x="228.35897" stroke-width="0" stroke="#000000" fill="#000000">4</text>
  <text font-weight="bold" xml:space="preserve" text-anchor="start" font-family="Noto Sans JP" font-size="17" id="svg_120" y="286.69423" x="104.35391" stroke-width="0" stroke="#000000" fill="#000000">2</text>
  <text font-weight="bold" xml:space="preserve" text-anchor="start" font-family="Noto Sans JP" font-size="17" id="svg_121" y="286.69423" x="168.35652" stroke-width="0" stroke="#000000" fill="#000000">3</text>
  <text font-weight="bold" xml:space="preserve" text-anchor="start" font-family="Noto Sans JP" font-size="17" id="svg_122" y="382.69815" x="219.35861" stroke-width="0" stroke="#000000" fill="#000000">4</text>
  <text font-weight="bold" xml:space="preserve" text-anchor="start" font-family="Noto Sans JP" font-size="17" id="svg_123" y="382.69815" x="95.35355" stroke-width="0" stroke="#000000" fill="#000000">2</text>
  <text font-weight="bold" xml:space="preserve" text-anchor="start" font-family="Noto Sans JP" font-size="17" id="svg_124" y="382.69815" x="159.35616" stroke-width="0" stroke="#000000" fill="#000000">3</text>
  <text style="cursor: move;" font-weight="bold" xml:space="preserve" text-anchor="start" font-family="Noto Sans JP" font-size="17" id="svg_125" y="598.70697" x="215.35844" stroke-width="0" stroke="#000000" fill="#000000">4</text>
  <text font-weight="bold" xml:space="preserve" text-anchor="start" font-family="Noto Sans JP" font-size="17" id="svg_126" y="598.70697" x="91.35338" stroke-width="0" stroke="#000000" fill="#000000">2</text>
  <text font-weight="bold" xml:space="preserve" text-anchor="start" font-family="Noto Sans JP" font-size="17" id="svg_127" y="598.70697" x="155.35599" stroke-width="0" stroke="#000000" fill="#000000">3</text>
  <text font-weight="bold" xml:space="preserve" text-anchor="start" font-family="Noto Sans JP" font-size="17" id="svg_128" y="188.69023" x="42.35139" stroke-width="0" stroke="#000000" fill="#000000">1</text>
  <text font-weight="bold" xml:space="preserve" text-anchor="start" font-family="Noto Sans JP" font-size="17" id="svg_129" y="191.69035" x="73.35265" stroke-width="0" stroke="#000000" fill="#000000">+</text>
  <text font-weight="bold" xml:space="preserve" text-anchor="start" font-family="Noto Sans JP" font-size="17" id="svg_130" y="192.6904" x="136.35522" stroke-width="0" stroke="#000000" fill="#000000">+</text>
  <text font-weight="bold" xml:space="preserve" text-anchor="start" font-family="Noto Sans JP" font-size="17" id="svg_131" y="192.6904" x="197.35771" stroke-width="0" stroke="#000000" fill="#000000">+</text>
  <text xml:space="preserve" text-anchor="start" font-family="Noto Sans JP" font-size="17" id="svg_132" y="495.70275" x="120.35457" stroke-width="0" stroke="#000000" fill="#000000">to</text>
  <text xml:space="preserve" text-anchor="start" font-family="Noto Sans JP" font-size="17" id="svg_133" y="494.70271" x="197.35771" stroke-width="0" stroke="#000000" fill="#000000">co</text>
 </g>

</svg>