<svg width="799.9999999999999" height="600" xmlns="http://www.w3.org/2000/svg">
 <g>
  <title>Layer 1</title>
  <g id="svg_86">
   <g id="svg_41">
    <g id="svg_27">
     <ellipse transform="rotate(-19 221.918 143.162)" stroke="#000000" ry="4.67541" rx="7.08309" id="svg_24" cy="143.1618" cx="221.91733" fill="#000000"/>
     <line stroke="#000000" stroke-width="1.5" id="svg_25" y2="142.95018" x2="232.38045" y1="142.95018" x1="211.63248" fill="none"/>
     <line stroke="#000000" id="svg_26" y2="108.12026" x2="228.38084" y1="142.49191" x1="228.38084" fill="none"/>
    </g>
    <g id="svg_31">
     <ellipse transform="rotate(-19 253.415 143.162)" stroke="#000000" ry="4.67541" rx="7.08309" id="svg_28" cy="143.1618" cx="253.41426" fill="#000000"/>
     <line stroke="#000000" stroke-width="1.5" id="svg_29" y2="142.95017" x2="263.87738" y1="142.95017" x1="243.1294" fill="none"/>
     <line stroke="#000000" id="svg_30" y2="108.12026" x2="259.87777" y1="142.4919" x1="259.87777" fill="none"/>
    </g>
    <g id="svg_35">
     <ellipse transform="rotate(-19 284.286 143.162)" stroke="#000000" ry="4.67541" rx="7.08309" id="svg_32" cy="143.1618" cx="284.28624" fill="#000000"/>
     <line stroke="#000000" stroke-width="1.5" id="svg_33" y2="142.95017" x2="294.74937" y1="142.95017" x1="274.00139" fill="none"/>
     <line stroke="#000000" id="svg_34" y2="108.12026" x2="290.74976" y1="142.4919" x1="290.74976" fill="none"/>
    </g>
    <g id="svg_39">
     <ellipse transform="rotate(-19 190.796 143.162)" stroke="#000000" ry="4.67541" rx="7.08309" id="svg_36" cy="143.16184" cx="190.79537" fill="#000000"/>
     <line stroke="#000000" stroke-width="1.5" id="svg_37" y2="142.95022" x2="201.25849" y1="142.95022" x1="180.51051" fill="none"/>
     <line stroke="#000000" id="svg_38" y2="108.1203" x2="197.25888" y1="142.49195" x1="197.25888" fill="none"/>
    </g>
    <line id="svg_40" y2="110.43253" x2="290.49978" y1="110.05757" x1="197.0089" stroke-width="4.5" stroke="#000000" fill="none"/>
   </g>
   <g id="svg_85">
    <g id="svg_71">
     <ellipse transform="rotate(-19 96.9176 143.162)" stroke="#000000" ry="4.67541" rx="7.08309" id="svg_68" cy="143.16181" cx="96.9172" fill="#000000"/>
     <line stroke="#000000" stroke-width="1.5" id="svg_69" y2="142.95018" x2="107.38032" y1="142.95018" x1="86.63234" fill="none"/>
     <line stroke="#000000" id="svg_70" y2="108.12027" x2="103.38071" y1="142.49191" x1="103.38071" fill="none"/>
    </g>
    <g id="svg_75">
     <ellipse transform="rotate(-19 128.415 143.162)" stroke="#000000" ry="4.67541" rx="7.08309" id="svg_72" cy="143.1618" cx="128.41412" fill="#000000"/>
     <line stroke="#000000" stroke-width="1.5" id="svg_73" y2="142.95018" x2="138.87724" y1="142.95018" x1="118.12927" fill="none"/>
     <line stroke="#000000" id="svg_74" y2="108.12026" x2="134.87763" y1="142.49191" x1="134.87763" fill="none"/>
    </g>
    <g id="svg_79">
     <ellipse transform="rotate(-19 159.286 143.162)" stroke="#000000" ry="4.67541" rx="7.08309" id="svg_76" cy="143.1618" cx="159.28611" fill="#000000"/>
     <line stroke="#000000" stroke-width="1.5" id="svg_77" y2="142.95018" x2="169.74923" y1="142.95018" x1="149.00126" fill="none"/>
     <line stroke="#000000" id="svg_78" y2="108.12026" x2="165.74962" y1="142.49191" x1="165.74962" fill="none"/>
    </g>
    <g id="svg_83">
     <ellipse transform="rotate(-19 65.7956 143.162)" stroke="#000000" ry="4.67541" rx="7.08309" id="svg_80" cy="143.16185" cx="65.79523" fill="#000000"/>
     <line stroke="#000000" stroke-width="1.5" id="svg_81" y2="142.95022" x2="76.25835" y1="142.95022" x1="55.51038" fill="none"/>
     <line stroke="#000000" id="svg_82" y2="108.12031" x2="72.25874" y1="142.49195" x1="72.25874" fill="none"/>
    </g>
    <line id="svg_84" y2="110.43254" x2="165.49965" y1="110.05758" x1="72.00877" stroke-width="4.5" stroke="#000000" fill="none"/>
   </g>
  </g>
  <g id="svg_102">
   <g id="svg_94">
    <ellipse transform="rotate(-19 250.419 237.991)" stroke="#000000" ry="4.67541" rx="7.08309" id="svg_88" cy="237.99077" cx="250.41901" fill="#000000"/>
    <line stroke="#000000" stroke-width="1.5" id="svg_89" y2="237.77915" x2="260.88213" y1="237.77915" x1="240.13416" fill="none"/>
    <line stroke="#000000" id="svg_90" y2="202.94923" x2="256.88252" y1="237.32088" x1="256.88252" fill="none"/>
    <ellipse transform="rotate(-19 187.8 237.991)" stroke="#000000" ry="4.67541" rx="7.08309" id="svg_91" cy="237.99082" cx="187.80012" fill="#000000"/>
    <line stroke="#000000" stroke-width="1.5" id="svg_92" y2="237.77919" x2="198.26324" y1="237.77919" x1="177.51527" fill="none"/>
    <line stroke="#000000" id="svg_93" y2="202.94928" x2="194.26363" y1="237.32093" x1="194.26363" fill="none"/>
   </g>
   <g id="svg_101">
    <ellipse transform="rotate(-19 125.419 237.991)" stroke="#000000" ry="4.67541" rx="7.08309" id="svg_95" cy="237.9908" cx="125.41888" fill="#000000"/>
    <line stroke="#000000" stroke-width="1.5" id="svg_96" y2="237.77917" x2="135.882" y1="237.77917" x1="115.13402" fill="none"/>
    <line stroke="#000000" id="svg_97" y2="202.94926" x2="131.88239" y1="237.32091" x1="131.88239" fill="none"/>
    <ellipse transform="rotate(-19 62.7998 237.991)" stroke="#000000" ry="4.67541" rx="7.08309" id="svg_98" cy="237.99084" cx="62.79999" fill="#000000"/>
    <line stroke="#000000" stroke-width="1.5" id="svg_99" y2="237.77922" x2="73.26311" y1="237.77922" x1="52.51513" fill="none"/>
    <line stroke="#000000" id="svg_100" y2="202.94931" x2="69.2635" y1="237.32095" x1="69.2635" fill="none"/>
   </g>
  </g>
  <g id="svg_110">
   <g id="svg_104">
    <line stroke="#000000" id="svg_66" y2="293.44784" x2="190.27849" y1="327.81948" x1="190.27849" fill="none"/>
    <ellipse transform="rotate(-14 183.815 328.489)" stroke-width="1.5" stroke="#000000" ry="4.67541" rx="7.08309" id="svg_103" cy="328.48938" cx="183.81498" fill="#ffffff"/>
    <ellipse transform="rotate(-15 184.065 328.592)" stroke="#000000" stroke-width="1.5" ry="3.69765" rx="6.41736" id="svg_64" cy="328.59232" cx="184.06481" fill="#ffffff"/>
    <line stroke="#000000" stroke-width="1.5" id="svg_65" y2="328.27775" x2="194.2781" y1="328.27775" x1="173.53013" fill="none"/>
   </g>
   <g id="svg_109">
    <line stroke="#000000" id="svg_105" y2="293.44779" x2="68.26348" y1="327.81944" x1="68.26348" fill="none"/>
    <ellipse transform="rotate(-14 61.8 328.49)" stroke-width="1.5" stroke="#000000" ry="4.67541" rx="7.08309" id="svg_106" cy="328.48933" cx="61.79997" fill="#ffffff"/>
    <ellipse transform="rotate(-15 62.0498 328.593)" stroke="#000000" stroke-width="1.5" ry="3.69765" rx="6.41736" id="svg_107" cy="328.59227" cx="62.0498" fill="#ffffff"/>
    <line stroke="#000000" stroke-width="1.5" id="svg_108" y2="328.2777" x2="72.26309" y1="328.2777" x1="51.51512" fill="none"/>
   </g>
  </g>
 </g>

</svg>